<?xml version="1.0" encoding="utf-8"?>
<!-- Generator: Adobe Illustrator 16.0.0, SVG Export Plug-In . SVG Version: 6.00 Build 0)  -->
<!DOCTYPE svg PUBLIC "-//W3C//DTD SVG 1.1//EN" "http://www.w3.org/Graphics/SVG/1.1/DTD/svg11.dtd">
<svg version="1.1" id="Layer_1" xmlns="http://www.w3.org/2000/svg" xmlns:xlink="http://www.w3.org/1999/xlink" x="0px" y="0px"
	 width="720px" height="340px" viewBox="0 0 720 340" enable-background="new 0 0 720 340" xml:space="preserve">
<path d="M223.659,141.766c0,0-12.763-0.541-15.142,2.38c0,0-2.812,5.517-2.92,10.275c0,0-0.974,5.732,2.92,7.787
	c0,0,2.812,2.921,10.816,2.813c0,0,8.003,0.433,11.249-1.839c0,0,2.704-0.757,2.704-5.732c0,0-0.541-10.6-3.028-13.303
	C230.257,144.146,228.959,141.658,223.659,141.766z M225.93,160.152c-2.487,0-5.624,0.648-5.624,0.648l-1.406,0.217l-1.406-0.217
	c-2.487,0-3.569-0.433-3.569-0.433c-2.704-0.324-3.569-1.515-3.569-1.515c-2.704-4.218,0.324-9.409,0.324-9.409
	c0.757-2.92,2.704-2.812,2.704-2.812c0.433-0.758,7.788-0.974,7.788-0.974c4.759-0.216,6.381,2.379,6.381,2.379
	c1.298,1.515,1.839,10.059,1.839,10.059C228.852,159.829,225.93,160.152,225.93,160.152z M253.187,174.105
	c0,0-1.406-16.764-4.326-22.605c0,0-2.487-8.003-8.437-7.787l-0.648-0.865c0,0-3.354-10.167-12.114-12.546
	c0,0-9.302-4.651-15.142-1.19c0,0-7.031,2.596-12.546,22.064c0,0-3.353,13.303-3.137,23.47c0,0-0.865,16.333,0.108,28.663
	l0.108,4.759c0,0,1.082,2.487,3.461,2.596l0.433-0.324l12.331,0.107c0,0,1.73,0,1.839-1.405v-1.622c0,0,0.324-0.433,0.107-2.812
	v-1.73c0,0,0.433-5.517,0.217-9.842c0,0,0.433-2.056,3.028-2.38c0,0,3.894-0.541,4.867,0.433c0,0,1.406,0.434,1.839,2.487
	l0.757,12.006c0,0-0.757,3.678,1.406,4.218c0,0,1.189,1.73,2.704,0.217l15.466,0.107c0,0,2.056,0.758,2.163-1.514l-0.433-3.462
	l-1.19-19.252C246.048,185.895,253.187,183.19,253.187,174.105z M242.803,205.146l-0.757,0.325l-10.275,0.107
	c-1.838-0.324-1.189-2.487-1.189-2.487l-0.217-4.435c-0.107-4.002-0.648-6.49-0.648-6.49l-0.324-3.137
	c-1.082-4.435-4.867-3.678-4.867-3.678c-6.165-0.865-11.033,1.839-11.033,1.839c-3.029,1.839-2.596,5.84-2.596,5.84
	c-0.649,1.623-0.107,3.138-0.107,3.138c-0.974,1.621-0.108,3.568-0.108,3.568l-0.107,4.435c-0.108,1.839-1.839,1.189-1.839,1.189
	l-6.489,0.107c-1.946,0.217-1.515-2.596-1.515-2.596l0.108-23.795c0.217-10.6,2.487-22.714,2.487-22.714
	c1.839-13.628,9.411-21.957,9.411-21.957c3.028-4.109,12.005-0.216,12.005-0.216c10.6,3.353,12.331,13.303,12.331,13.303
	c2.163,6.922,4.326,27.472,4.326,27.472c0.324,1.406,1.406,29.312,1.406,29.312L242.803,205.146L242.803,205.146z M245.724,180.162
	c0,0-1.371-17.666-2.163-21.848c0,0-1.731-8.726-2.235-9.302c0,0,0.577-1.226,1.659,0.361c0,0,4.109,5.841,5.263,17.089
	c0,0,0.792,6.922,0.792,9.085C249.04,175.548,247.527,181.749,245.724,180.162z"/>
<path d="M253.187,208.067c0,0-0.648,1.946,0.865,2.596c0,0,2.487,0.757,3.569-0.541l0.433-2.271l0.757-5.624l5.3-33.53l3.461-23.146
	c0,0,0.541-1.515,0.974,0.216l5.733,30.284l4.542,28.986l1.082,4.326c0,0,0.433,1.189,2.163,1.189l1.514,0.108
	c0,0,0.649-0.108,1.298-1.622l2.055-15.683l3.137-24.336l3.785-24.444c0,0,0.433-3.678,1.082-1.839l1.515,14.493l2.704,21.632
	l1.947,19.469l1.515,10.923c0,0,0.107,1.298,2.163,1.623c0,0,1.73,0.433,2.272-1.082l-1.19-12.438l-4.326-36.233l-3.353-25.958
	l-0.541-4.435c0,0-1.19-2.812-3.461-2.704c0,0-2.055,0-2.487,3.569l-4.111,25.634l-4.867,33.421l-0.216,2.92
	c0,0-0.433,3.678-0.974-1.622l-3.893-24.01l-5.624-27.04c0,0,0.108-7.463-2.379-9.734c0,0,0-3.678-3.569-2.163
	c0,0-0.974,1.514-1.082,3.353l-5.084,33.637l-5.949,36.125L253.187,208.067z"/>
<g>
	<path d="M335.712,148.364c0,0-2.487-13.736-7.896-18.171c0,0-5.624-4.759-10.275-1.082c0,0-5.3,5.517-5.948,16.981
		c0,0-1.406,20.118-0.865,24.228c0,0,0.108,21.74,3.895,31.041c0,0,1.514,8.545,9.518,9.409c0,0,4.867,0.541,7.571-8.112
		c0,0,4.001-14.385,4.759-27.797C336.47,174.862,337.226,154.312,335.712,148.364z M331.385,177.783c0,0-1.731,16.873-2.92,19.576
		c0,0-1.189,7.031-4.976,7.463c0,0-3.785,1.189-5.948-11.573c0,0-2.704-17.846-1.731-33.637c0.974-15.792,1.298-17.63,1.298-17.63
		s1.19-8.112,3.786-8.653c0,0,3.569-1.189,4.759,1.731c0,0,5.083,8.436,5.191,15.25C330.844,150.31,332.683,159.287,331.385,177.783
		z"/>
</g>
<path d="M341.77,207.31c0,0-0.325,1.73,0,2.487c0,0-0.108,0.541,1.622,0.865c0,0,2.379,0.541,3.353-0.648l0.108-0.974
	c0,0-0.541-16.007-0.649-24.768c-0.108-8.762-0.108-34.612-0.108-34.612v-9.842c0,0,0.108-1.515,0.757,0.974l9.95,39.154
	l2.812,12.546l3.678,13.844c0,0,0.648,4.11,2.271,4.435l2.704-0.217c0,0,0.54,0.649,0.974-1.298l0.757-14.817
	c0,0,1.082-18.819,0.434-27.581c0,0-0.434-19.36-0.434-22.497c0,0,0-8.003,0.324-12.438c0,0,1.19-3.461-2.487-3.894
	c0,0-2.596-0.108-2.379,5.733v12.331l0.649,10.492l0.107,9.41l-0.216,27.797c0,0-0.758,4.11-1.515-1.298l-4.002-17.09l-5.516-23.471
	l-5.516-18.711c0,0-0.974-5.408-4.976-4.543c0,0-2.704,0-3.028,3.895v19.901v28.23l0.217,13.628c0,0-0.324,6.814,0.107,8.437
	L341.77,207.31L341.77,207.31z"/>
<path d="M396.93,129.544c0,0,2.38,2.272-0.323,4.759c0,0,0.433,0.541-4.219-0.65c0,0-4.219-1.406-6.598,2.596
	c0,0-5.191,7.679-5.732,20.118c0,0-1.19,14.71-0.325,24.768c0,0,0.108,14.602,3.785,20.226c0,0,2.056,5.3,9.194,1.946
	c0,0,3.028,0.108,4.326-16.332l0.107-10.707c0,0-0.216-1.623,2.272-2.272l9.734-0.107c0,0,3.785-0.217,2.055,4.11
	c0,0-0.54,1.081-4.218,1.838l-4.976,0.107c0,0,0.433,16.116-2.487,22.714c0,0-3.029,7.571-10.06,8.221c0,0-8.22,0-10.924-8.328
	c0,0-3.784-8.003-3.568-24.119c0,0-0.324-18.062,1.082-28.879c0,0,1.298-10.708,6.164-17.305c0,0,2.272-4.867,10.275-4.218
	C392.495,128.029,395.957,128.246,396.93,129.544z"/>
<path d="M447.332,136.466c0,0-0.433-5.336,0.145-6.922c0,0,2.019-3.75,4.182,0l0.577,19.757c0,0,2.308,34.898,4.759,44.13
	c0,0,2.597,10.672,6.489,11.536c0,0,5.048,2.308,8.364-5.769c0,0,2.741-7.065,4.326-25.525l0.722-26.534
	c0,0,0.145-17.738,1.875-18.171c0,0,2.451-1.442,3.027,2.163l-0.289,14.998c0,0-0.864,23.651-0.721,27.544
	c0,0-1.442,21.488-5.336,28.844c0,0-2.451,10.383-14.421,7.066c0,0-8.653-3.462-10.384-24.228c0,0-2.596-26.103-3.029-33.313
	L447.332,136.466z"/>
<path d="M508.189,128.678c0,0,7.643,2.74,6.633,7.355c0,0-2.019,3.172-4.182,0.865c0,0-3.316-5.192-11.825-3.461
	c0,0-5.192,2.019-7.211,10.816c0,0-3.749,11.393,6.057,17.883c0,0,18.748,8.653,21.2,22.353c0,0,2.74,17.883-12.259,24.949
	c0,0-14.854,6.346-19.612-10.096c0,0-2.885-16.151-0.289-20.479c0,0,2.741-2.74,3.75,2.308c0,0-2.308,18.314,5.479,22.929
	c0,0,7.932,5.192,15.575-5.047c0,0,7.787-12.836-1.874-21.633c0,0-5.769-6.49-12.402-9.229c0,0-12.979-4.615-10.527-22.064
	c0,0,1.154-11.826,8.942-17.162C495.644,128.966,498.671,125.938,508.189,128.678z"/>
</svg>
